<?xml version="1.0" ?><!DOCTYPE svg  PUBLIC '-//W3C//DTD SVG 1.1//EN'  'http://www.w3.org/Graphics/SVG/1.1/DTD/svg11.dtd'><svg enable-background="new 0 0 512 512" id="Layer_1" version="1.1" viewBox="0 0 512 512" xml:space="preserve" xmlns="http://www.w3.org/2000/svg" xmlns:xlink="http://www.w3.org/1999/xlink"><circle cx="256" cy="256" fill="#F16529" id="ellipse" r="256"/><g id="logo"><polygon fill="#FFFFFF" points="115,116 140.7,404 255.9,436 371.3,404 397,116  "/><polygon fill="#F16529" points="341.3,210.2 256,210.2 206.1,210.2 209.4,246.4 256,246.4 338.1,246.4 328.4,354.9 256,374.9    255.9,374.9 183.6,354.9 178.5,298.1 214,298.1 216.6,327.6 256,338.2 256,338.2 256,338.2 295.4,327.5 299.5,281.7 256,281.7    256,281.7 177.1,281.7 167.5,174.9 256,174.9 344.5,174.9  "/></g></svg>