<svg width="128" height="128" xmlns="http://www.w3.org/2000/svg">

 <g>
  <title>background</title>
  <rect fill="none" id="canvas_background" height="402" width="582" y="-1" x="-1"/>
 </g>
 <g>
  <title>Layer 1</title>
  <circle id="svg_4" fill="#F0DB4F" r="64" cy="63.819607" cx="64"/>
  <path id="svg_7" fill="#323330" d="m48.400002,44.599998l8.699997,0l0,24.5c0,11 -5.299999,14.900002 -13.699997,14.900002c-2.100002,0 -4.700001,-0.300003 -6.400002,-0.900002l1,-7.099998c1.200001,0.400002 2.799999,0.699997 4.5,0.699997c3.700001,0 6,-1.699997 6,-7.599998l-0.099998,-24.5l0,0z"/>
  <path id="svg_8" fill="#323330" d="m64.800003,74.400002c2.299995,1.199997 6,2.400002 9.699997,2.400002c4,0 6.099998,-1.700005 6.099998,-4.300003c0,-2.400002 -1.799995,-3.800003 -6.5,-5.400002c-6.400002,-2.299995 -10.699997,-5.899998 -10.699997,-11.599998c0,-6.5 5.599998,-11.5 14.699997,-11.5c4.400002,0 7.599998,0.900002 9.900002,2l-2,7c-1.5,-0.700001 -4.300003,-1.799999 -8,-1.799999c-3.800003,0 -5.599998,1.799999 -5.599998,3.700001c0,2.5 2.099998,3.599998 7.199997,5.5c6.800003,2.5 10,6.099998 10,11.599998c0,6.5 -4.900002,12 -15.599998,12c-4.400002,0 -8.800003,-1.199997 -11,-2.400002l1.800003,-7.199997z"/>
 </g>
</svg>