<svg width="128" height="128" xmlns="http://www.w3.org/2000/svg">

 <g>
  <title>background</title>
  <rect fill="none" id="canvas_background" height="402" width="582" y="-1" x="-1"/>
 </g>
 <g>
  <title>Layer 1</title>
  <circle fill="#cc6699" id="svg_5" r="64" cy="64" cx="64" class="st0"/>
  <path fill="#ffffff" id="svg_6" d="m90.900002,41.799999c-0.599998,-2.399998 -2.300003,-4.399998 -4.900002,-5.799999c-5.099998,-2.700001 -13.300003,-2.799999 -20.800003,-0.099998c-4.499996,1.599998 -12.999996,5.199997 -19.399998,11.099998c-6.399998,6 -7.399998,11.299999 -6.899998,13.400002c1.099998,5.799995 7.199997,9.900002 12,13.299995c1.299999,0.900002 2.5,1.700005 3.399998,2.5c-2.700001,1.400002 -10,5.5 -12,9.800003c-1.5,3.400002 -0.799999,5.900002 -0.200001,7c0.600002,1.300003 1.600002,2.300003 2.600002,2.599998c1,0.300003 2.099998,0.400002 3.200001,0.400002c4.299999,0 8.5,-2.300003 11.099998,-6.199997c2.599998,-3.900002 2.799999,-9.100006 1.599998,-12.300003c1.700001,-0.400002 3.5,-0.400002 5.5,-0.199997c3.900002,0.5 5.800003,2 6.700005,3.199997c1,1.300003 1.199997,2.599998 1.099998,3.400002c-0.200005,1.5 -1.400002,2.400002 -2,2.799995c-0.5,0.300003 -0.900002,0.600006 -0.800003,1.200005c0.200005,0.799995 1,0.699997 1.300003,0.699997c0.900002,-0.199997 4.099998,-1.799995 4.299995,-5.400002c0.100006,-2.199997 -0.799995,-4.399994 -2.5,-6.199997c-2.199997,-2.300003 -5.5,-3.5 -9.299995,-3.400002c-2.800003,0 -4.700001,0.300003 -6.200001,0.800003c0,0 -0.100002,-0.099998 -0.100002,-0.099998c-1.399998,-1.5 -3.299999,-2.900002 -5,-4.300003c-4,-3 -7.699997,-5.900002 -7.5,-10.200001c0.300003,-5.399998 5.600002,-10.700001 15.900002,-15.799999c9.099998,-4.5 16.5,-4.700001 20.400002,-3.299999c1.599998,0.599998 2.699997,1.399998 3.099998,2.299999c0.800003,1.700001 0.5,3.900002 -0.900002,6.299999c-2.299995,4 -8.099998,9 -17,10c-5.399998,0.600002 -7.699997,-1.799999 -7.799999,-1.899998c-0.599998,-0.700001 -1,-1.100002 -1.700001,-0.700001c-0.799999,0.399998 -0.399998,1.5 -0.199997,1.899998c0.399998,1.100002 2.099998,3 5,4c2.299995,0.800003 8.199997,1.300003 15.5,-1.5c8.400002,-3.399998 14.199997,-12.399998 12.5,-19.299999zm-34.5,42.600002c-0.100002,0.199997 -0.100002,0.400002 -0.200001,0.599998c-0.100002,0.199997 -0.200001,0.400002 -0.200001,0.599998c-0.400002,0.900002 -1,1.800003 -1.799999,2.599998c-2.299999,2.5 -5.400002,3.200005 -6.400002,2.600006c-0.299999,-0.200005 -0.399998,-0.5 -0.5,-0.900002c-0.200001,-1.200005 0.5,-3.599998 2.600002,-5.700005c2.5,-2.599998 6,-4.5 6.799999,-4.899994c0.299999,1.799995 0.200001,3.5 -0.299999,5.099998z" class="st1"/>
 </g>
</svg>