<svg id="Layer_1" version="1.1" viewBox="0 0 512 512" xml:space="preserve" xmlns="http://www.w3.org/2000/svg">
    <style>
        .st1{fill:#955e88}.st3{fill:#fff}
    </style>
    <g id="XMLID_184_">
        <g id="XMLID_138_">
            <path id="XMLID_142_" fill="#ffdef9" d="M330.7 6H87.9v500h361.3V122.8z"/>
            <path class="st1" id="XMLID_141_" d="M330.7 6l118.5 116.8H330.7z"/>
            <path class="st1" id="XMLID_140_" d="M62.8 298.8h329v156.1h-329z"/>
            <path id="XMLID_139_" fill="#6b3763" d="M62.8 454.9l25.1 21.2v-21.2z"/>
        </g>
        <g id="XMLID_3122_">
            <path class="st3" d="M163.5 383.5c0-1.6-.9-3-2.7-4.2-1.8-1.2-5-2.3-9.7-3.3-7.4-1.4-12.9-3.7-16.7-6.7-3.7-3-5.6-7.2-5.6-12.5 0-5.6 2.3-10.3 7-14.2 4.7-3.9 11-5.8 19-5.8 8.4 0 15.1 1.9 20.1 5.6 5 3.8 7.4 8.6 7.1 14.6l-.1.4h-19.2c0-2.5-.6-4.4-1.9-5.7-1.2-1.3-3.3-1.9-6.1-1.9-2.1 0-3.8.6-5.2 1.7-1.4 1.1-2.1 2.6-2.1 4.3 0 1.7.8 3.1 2.4 4.3 1.6 1.2 4.9 2.2 9.8 3.2 7.8 1.5 13.5 3.8 17.2 6.8 3.7 3 5.6 7.3 5.6 12.8 0 5.7-2.5 10.4-7.6 14.1-5 3.7-11.7 5.5-20 5.5-8.6 0-15.4-2.2-20.4-6.5s-7.4-9.2-7.2-14.6l.1-.3h17.9c.1 3 1 5.2 2.7 6.5 1.7 1.3 4.2 2 7.4 2 2.7 0 4.7-.5 6-1.5 1.5-1.3 2.2-2.7 2.2-4.6z" id="XMLID_3069_"/>
            <path class="st3" d="M223.9 375.1l1.2 6.7.3.1 1.3-6.8L235 338h20.8l-20.6 63.3h-20.1L194.6 338h20.8l8.5 37.1z" id="XMLID_3071_"/>
            <path class="st3" d="M266.7 369.7c0-9.9 2.2-17.8 6.5-23.9 4.3-6 10.4-9.1 18.2-9.1 3.3 0 6.2.8 8.8 2.4 2.5 1.6 4.7 3.8 6.5 6.7l1.3-7.9h17.4v62.6c0 8.3-2.9 14.8-8.6 19.4-5.7 4.6-13.6 6.9-23.6 6.9-3.3 0-6.7-.4-10.3-1.3-3.6-.9-7-2.1-10.3-3.6l3.4-14.6c2.8 1.2 5.6 2.2 8.2 2.8 2.6.6 5.6.9 8.9.9 4.2 0 7.3-.8 9.4-2.5 2-1.7 3.1-4.3 3.1-8v-4.9c-1.8 2.3-3.9 4-6.2 5.2-2.4 1.2-5.1 1.8-8.1 1.8-7.8 0-13.8-2.9-18.1-8.7-4.3-5.8-6.4-13.4-6.4-22.9v-1.3zm19.7 1.2c0 5.1.7 9.2 2.3 12 1.5 2.9 4 4.3 7.6 4.3 2.1 0 4-.3 5.5-1s2.8-1.7 3.8-3v-26.6c-1-1.5-2.2-2.7-3.7-3.5-1.5-.8-3.3-1.2-5.4-1.2-3.5 0-6.1 1.6-7.6 4.9-1.6 3.3-2.4 7.5-2.4 12.8v1.3z" id="XMLID_3073_"/>
        </g>
    </g>
</svg>
